<?xml version="1.0" standalone="no"?>
<!DOCTYPE svg PUBLIC "-//W3C//DTD SVG 20010904//EN"
 "http://www.w3.org/TR/2001/REC-SVG-20010904/DTD/svg10.dtd">
<svg version="1.0" xmlns="http://www.w3.org/2000/svg"
 width="292.000000pt" height="292.000000pt" viewBox="0 0 292.000000 292.000000"
 preserveAspectRatio="xMidYMid meet">
<metadata>
Created by potrace 1.11, written by Peter Selinger 2001-2013
</metadata>
<g transform="translate(0.000000,292.000000) scale(0.100000,-0.100000)"
fill="#000000" stroke="none">
<path d="M1483 2905 c-74 -31 -90 -118 -34 -187 12 -16 11 -26 -14 -83 -15
-36 -30 -65 -34 -65 -3 0 -25 29 -48 65 l-43 65 17 35 c48 101 -70 194 -163
127 -27 -19 -43 -64 -37 -102 2 -14 23 -43 46 -65 l43 -40 -1 -170 c-1 -182 6
-217 48 -236 20 -9 234 -69 317 -89 19 -5 62 -16 95 -25 33 -9 70 -19 83 -22
45 -11 78 15 131 104 28 46 51 89 51 94 0 5 5 9 10 9 6 0 10 4 10 10 0 5 12
29 27 54 25 41 30 45 80 51 42 5 57 12 73 35 35 50 30 102 -14 143 -61 55
-159 16 -172 -68 -6 -42 -10 -46 -87 -82 l-49 -23 7 63 c4 34 9 69 10 77 2 8
4 18 4 23 1 4 10 7 20 7 11 0 33 11 49 25 56 47 54 127 -4 172 -89 67 -204
-14 -174 -122 11 -40 11 -43 -20 -76 -17 -19 -46 -51 -63 -71 -29 -35 -50 -49
-45 -30 1 4 -1 21 -5 37 -28 123 -28 154 -1 171 58 39 52 151 -11 183 -34 18
-69 20 -102 6z"/>
<path d="M1199 2205 c-21 -21 -13 -64 15 -76 24 -10 169 -50 393 -108 133 -34
154 -37 171 -25 21 14 24 57 6 74 -5 5 -79 27 -164 50 -85 23 -180 49 -210 58
-30 9 -58 17 -62 18 -5 1 -9 2 -10 4 -4 3 -39 9 -83 16 -30 4 -44 1 -56 -11z"/>
<path d="M1133 2058 c-26 -23 -54 -50 -60 -58 -22 -26 -72 -134 -79 -170 -12
-62 -11 -869 1 -940 21 -120 79 -203 191 -276 118 -76 271 -80 409 -11 80 40
180 167 203 257 2 8 6 223 8 476 4 439 3 464 -16 526 -11 35 -30 73 -42 84
-22 20 -447 141 -530 151 -32 4 -42 0 -85 -39z m138 -958 c1 -5 2 -21 2 -35 0
-40 -2 -47 -13 -40 -5 3 -10 24 -10 46 0 21 5 39 10 39 6 0 11 -4 11 -10z m89
-37 c0 -29 -4 -43 -9 -37 -17 17 -17 84 -1 84 6 0 10 -21 10 -47z"/>
<path d="M780 972 c-22 -28 -22 -78 2 -167 6 -22 11 -44 13 -50 1 -5 7 -23 13
-38 7 -16 12 -31 12 -33 0 -3 19 -36 43 -72 106 -164 272 -273 452 -297 11 -1
23 -3 28 -4 4 0 7 -37 7 -81 l0 -80 -32 0 c-139 -2 -281 -47 -304 -95 -25 -53
-23 -53 388 -51 207 0 379 4 383 7 16 16 -9 61 -44 78 -30 15 -82 32 -101 33
-3 0 -12 4 -21 8 -8 5 -49 12 -90 16 -41 3 -77 8 -80 10 -10 6 -17 54 -8 54 4
0 4 12 0 28 -7 30 -4 72 7 73 67 7 154 34 232 72 190 91 328 295 345 507 4 55
2 74 -10 86 -37 38 -94 12 -96 -43 -3 -119 -40 -225 -111 -314 -52 -66 -68
-80 -138 -122 -96 -58 -147 -72 -270 -71 -70 0 -145 7 -145 14 0 1 -9 3 -19 5
-36 7 -141 64 -183 100 -84 72 -158 207 -170 310 -2 22 -6 55 -8 74 -6 63 -60
88 -95 43z"/>
</g>
</svg>
